<?xml version="1.0" encoding="UTF-8" standalone="no"?>
<!DOCTYPE svg PUBLIC "-//W3C//DTD SVG 1.1//EN"
 "http://www.w3.org/Graphics/SVG/1.1/DTD/svg11.dtd">
<!-- Generated by graphviz version 2.38.0 (20140413.2041)
 -->
<!-- Title: controllers_diagram Pages: 1 -->
<svg width="366pt" height="356pt"
 viewBox="0.00 0.00 365.99 356.00" xmlns="http://www.w3.org/2000/svg" xmlns:xlink="http://www.w3.org/1999/xlink">
<g id="graph0" class="graph" transform="scale(1 1) rotate(0) translate(64.3037 232.5)">
<title>controllers_diagram</title>
<polygon fill="white" stroke="none" points="-64.3037,123.5 -64.3037,-232.5 301.688,-232.5 301.688,123.5 -64.3037,123.5"/>
<!-- _diagram_info -->
<g id="node1" class="node"><title>_diagram_info</title>
<text text-anchor="start" x="98.3123" y="-89.1" font-family="Times,serif" font-size="13.00">Controllers diagram</text>
<text text-anchor="start" x="98.3123" y="-76.1" font-family="Times,serif" font-size="13.00">Date: Mar 17 2015 &#45; 15:53</text>
<text text-anchor="start" x="98.3123" y="-63.1" font-family="Times,serif" font-size="13.00">Migration version: 20150313075931</text>
<text text-anchor="start" x="98.3123" y="-50.1" font-family="Times,serif" font-size="13.00">Generated by RailRoady 1.3.0</text>
<text text-anchor="start" x="98.3123" y="-37.1" font-family="Times,serif" font-size="13.00">http://railroady.prestonlee.com</text>
</g>
<!-- ApplicationController -->
<g id="node2" class="node"><title>ApplicationController</title>
<path fill="none" stroke="black" d="M147.179,-136C147.179,-136 262.821,-136 262.821,-136 268.821,-136 274.821,-142 274.821,-148 274.821,-148 274.821,-216 274.821,-216 274.821,-222 268.821,-228 262.821,-228 262.821,-228 147.179,-228 147.179,-228 141.179,-228 135.179,-222 135.179,-216 135.179,-216 135.179,-148 135.179,-148 135.179,-142 141.179,-136 147.179,-136"/>
<text text-anchor="middle" x="205" y="-212.8" font-family="Times,serif" font-size="14.00">ApplicationController</text>
<polyline fill="none" stroke="black" points="135.179,-206 274.821,-206 "/>
<polyline fill="none" stroke="black" points="135.179,-182 274.821,-182 "/>
<polyline fill="none" stroke="black" points="135.179,-158 274.821,-158 "/>
<text text-anchor="start" x="143.179" y="-142.8" font-family="Times,serif" font-size="14.00">_layout</text>
</g>
<!-- EventsController -->
<g id="node3" class="node"><title>EventsController</title>
<path fill="none" stroke="black" d="M-48.3037,119C-48.3037,119 46.3037,119 46.3037,119 52.3037,119 58.3037,113 58.3037,107 58.3037,107 58.3037,-85 58.3037,-85 58.3037,-91 52.3037,-97 46.3037,-97 46.3037,-97 -48.3037,-97 -48.3037,-97 -54.3037,-97 -60.3037,-91 -60.3037,-85 -60.3037,-85 -60.3037,107 -60.3037,107 -60.3037,113 -54.3037,119 -48.3037,119"/>
<text text-anchor="middle" x="-1" y="-81.8" font-family="Times,serif" font-size="14.00">EventsController</text>
<polyline fill="none" stroke="black" points="-60.3037,-75 58.3037,-75 "/>
<text text-anchor="start" x="-52.3037" y="-59.8" font-family="Times,serif" font-size="14.00">create</text>
<text text-anchor="start" x="-52.3037" y="-45.8" font-family="Times,serif" font-size="14.00">destroy</text>
<text text-anchor="start" x="-52.3037" y="-31.8" font-family="Times,serif" font-size="14.00">edit</text>
<text text-anchor="start" x="-52.3037" y="-17.8" font-family="Times,serif" font-size="14.00">index</text>
<text text-anchor="start" x="-52.3037" y="-3.8" font-family="Times,serif" font-size="14.00">new</text>
<text text-anchor="start" x="-52.3037" y="10.2" font-family="Times,serif" font-size="14.00">reparse_park_data</text>
<text text-anchor="start" x="-52.3037" y="24.2" font-family="Times,serif" font-size="14.00">show</text>
<text text-anchor="start" x="-52.3037" y="38.2" font-family="Times,serif" font-size="14.00">update</text>
<polyline fill="none" stroke="black" points="-60.3037,45 58.3037,45 "/>
<polyline fill="none" stroke="black" points="-60.3037,69 58.3037,69 "/>
<text text-anchor="start" x="-52.3037" y="84.2" font-family="Times,serif" font-size="14.00">_layout</text>
<text text-anchor="start" x="-52.3037" y="98.2" font-family="Times,serif" font-size="14.00">event_params</text>
<text text-anchor="start" x="-52.3037" y="112.2" font-family="Times,serif" font-size="14.00">find_event</text>
</g>
<!-- OmniauthCallbacksController -->
<g id="node4" class="node"><title>OmniauthCallbacksController</title>
<path fill="none" stroke="black" d="M101.627,89C101.627,89 262.373,89 262.373,89 268.373,89 274.373,83 274.373,77 274.373,77 274.373,11 274.373,11 274.373,5 268.373,-1 262.373,-1 262.373,-1 101.627,-1 101.627,-1 95.6274,-1 89.6274,5 89.6274,11 89.6274,11 89.6274,77 89.6274,77 89.6274,83 95.6274,89 101.627,89"/>
<text text-anchor="middle" x="182" y="14.2" font-family="Times,serif" font-size="14.00">OmniauthCallbacksController</text>
<polyline fill="none" stroke="black" points="89.6274,21 274.373,21 "/>
<text text-anchor="start" x="97.6274" y="36.2" font-family="Times,serif" font-size="14.00">facebook</text>
<polyline fill="none" stroke="black" points="89.6274,43 274.373,43 "/>
<polyline fill="none" stroke="black" points="89.6274,67 274.373,67 "/>
<text text-anchor="start" x="97.6274" y="82.2" font-family="Times,serif" font-size="14.00">_layout</text>
</g>
<!-- SiteController -->
<g id="node5" class="node"><title>SiteController</title>
<path fill="none" stroke="black" d="M27.3379,-136C27.3379,-136 98.6621,-136 98.6621,-136 104.662,-136 110.662,-142 110.662,-148 110.662,-148 110.662,-214 110.662,-214 110.662,-220 104.662,-226 98.6621,-226 98.6621,-226 27.3379,-226 27.3379,-226 21.3379,-226 15.3379,-220 15.3379,-214 15.3379,-214 15.3379,-148 15.3379,-148 15.3379,-142 21.3379,-136 27.3379,-136"/>
<text text-anchor="middle" x="63" y="-210.8" font-family="Times,serif" font-size="14.00">SiteController</text>
<polyline fill="none" stroke="black" points="15.3379,-204 110.662,-204 "/>
<text text-anchor="start" x="23.3379" y="-188.8" font-family="Times,serif" font-size="14.00">homepage</text>
<polyline fill="none" stroke="black" points="15.3379,-182 110.662,-182 "/>
<polyline fill="none" stroke="black" points="15.3379,-158 110.662,-158 "/>
<text text-anchor="start" x="23.3379" y="-142.8" font-family="Times,serif" font-size="14.00">_layout</text>
</g>
</g>
</svg>
