<?xml version="1.0" encoding="UTF-8" standalone="no"?>
<!DOCTYPE svg PUBLIC "-//W3C//DTD SVG 1.1//EN"
 "http://www.w3.org/Graphics/SVG/1.1/DTD/svg11.dtd">
<!-- Generated by graphviz version 2.38.0 (20140413.2041)
 -->
<!-- Title: models_diagram Pages: 1 -->
<svg width="601pt" height="442pt"
 viewBox="0.00 0.00 601.04 442.00" xmlns="http://www.w3.org/2000/svg" xmlns:xlink="http://www.w3.org/1999/xlink">
<g id="graph0" class="graph" transform="scale(1 1) rotate(0) translate(4 438)">
<title>models_diagram</title>
<polygon fill="white" stroke="none" points="-4,4 -4,-438 597.041,-438 597.041,4 -4,4"/>
<!-- _diagram_info -->
<g id="node1" class="node"><title>_diagram_info</title>
<text text-anchor="start" x="8" y="-335.6" font-family="Times,serif" font-size="13.00">Models diagram</text>
<text text-anchor="start" x="8" y="-322.6" font-family="Times,serif" font-size="13.00">Date: Mar 17 2015 &#45; 15:53</text>
<text text-anchor="start" x="8" y="-309.6" font-family="Times,serif" font-size="13.00">Migration version: 20150313075931</text>
<text text-anchor="start" x="8" y="-296.6" font-family="Times,serif" font-size="13.00">Generated by RailRoady 1.3.0</text>
<text text-anchor="start" x="8" y="-283.6" font-family="Times,serif" font-size="13.00">http://railroady.prestonlee.com</text>
</g>
<!-- Event -->
<g id="node2" class="node"><title>Event</title>
<path fill="none" stroke="black" d="M273.182,-0.5C273.182,-0.5 382.193,-0.5 382.193,-0.5 388.193,-0.5 394.193,-6.5 394.193,-12.5 394.193,-12.5 394.193,-144.5 394.193,-144.5 394.193,-150.5 388.193,-156.5 382.193,-156.5 382.193,-156.5 273.182,-156.5 273.182,-156.5 267.182,-156.5 261.182,-150.5 261.182,-144.5 261.182,-144.5 261.182,-12.5 261.182,-12.5 261.182,-6.5 267.182,-0.5 273.182,-0.5"/>
<text text-anchor="middle" x="327.688" y="-141.3" font-family="Times,serif" font-size="14.00">Event</text>
<polyline fill="none" stroke="black" points="261.182,-134.5 394.193,-134.5 "/>
<text text-anchor="start" x="269.182" y="-119.3" font-family="Times,serif" font-size="14.00">id :integer</text>
<text text-anchor="start" x="269.182" y="-105.3" font-family="Times,serif" font-size="14.00">title :string</text>
<text text-anchor="start" x="269.182" y="-91.3" font-family="Times,serif" font-size="14.00">description :text</text>
<text text-anchor="start" x="269.182" y="-77.3" font-family="Times,serif" font-size="14.00">spots :integer</text>
<text text-anchor="start" x="269.182" y="-63.3" font-family="Times,serif" font-size="14.00">date :date</text>
<text text-anchor="start" x="269.182" y="-49.3" font-family="Times,serif" font-size="14.00">created_at :datetime</text>
<text text-anchor="start" x="269.182" y="-35.3" font-family="Times,serif" font-size="14.00">updated_at :datetime</text>
<text text-anchor="start" x="269.182" y="-21.3" font-family="Times,serif" font-size="14.00">user_id :integer</text>
<text text-anchor="start" x="269.182" y="-7.3" font-family="Times,serif" font-size="14.00">park_id :integer</text>
</g>
<!-- Park -->
<g id="node3" class="node"><title>Park</title>
<path fill="none" stroke="black" d="M460.334,-207.5C460.334,-207.5 581.041,-207.5 581.041,-207.5 587.041,-207.5 593.041,-213.5 593.041,-219.5 593.041,-219.5 593.041,-407.5 593.041,-407.5 593.041,-413.5 587.041,-419.5 581.041,-419.5 581.041,-419.5 460.334,-419.5 460.334,-419.5 454.334,-419.5 448.334,-413.5 448.334,-407.5 448.334,-407.5 448.334,-219.5 448.334,-219.5 448.334,-213.5 454.334,-207.5 460.334,-207.5"/>
<text text-anchor="middle" x="520.688" y="-404.3" font-family="Times,serif" font-size="14.00">Park</text>
<polyline fill="none" stroke="black" points="448.334,-397.5 593.041,-397.5 "/>
<text text-anchor="start" x="456.334" y="-382.3" font-family="Times,serif" font-size="14.00">id :integer</text>
<text text-anchor="start" x="456.334" y="-368.3" font-family="Times,serif" font-size="14.00">name :string</text>
<text text-anchor="start" x="456.334" y="-354.3" font-family="Times,serif" font-size="14.00">official :string</text>
<text text-anchor="start" x="456.334" y="-340.3" font-family="Times,serif" font-size="14.00">streetNumber :integer</text>
<text text-anchor="start" x="456.334" y="-326.3" font-family="Times,serif" font-size="14.00">streetName :string</text>
<text text-anchor="start" x="456.334" y="-312.3" font-family="Times,serif" font-size="14.00">ewStreet :string</text>
<text text-anchor="start" x="456.334" y="-298.3" font-family="Times,serif" font-size="14.00">washroom :string</text>
<text text-anchor="start" x="456.334" y="-284.3" font-family="Times,serif" font-size="14.00">nsstreet :string</text>
<text text-anchor="start" x="456.334" y="-270.3" font-family="Times,serif" font-size="14.00">googleMapDest :string</text>
<text text-anchor="start" x="456.334" y="-256.3" font-family="Times,serif" font-size="14.00">hectare :string</text>
<text text-anchor="start" x="456.334" y="-242.3" font-family="Times,serif" font-size="14.00">park_id :integer</text>
<text text-anchor="start" x="456.334" y="-228.3" font-family="Times,serif" font-size="14.00">created_at :datetime</text>
<text text-anchor="start" x="456.334" y="-214.3" font-family="Times,serif" font-size="14.00">updated_at :datetime</text>
</g>
<!-- User -->
<g id="node4" class="node"><title>User</title>
<path fill="none" stroke="black" d="M237.41,-193.5C237.41,-193.5 417.966,-193.5 417.966,-193.5 423.966,-193.5 429.966,-199.5 429.966,-205.5 429.966,-205.5 429.966,-421.5 429.966,-421.5 429.966,-427.5 423.966,-433.5 417.966,-433.5 417.966,-433.5 237.41,-433.5 237.41,-433.5 231.41,-433.5 225.41,-427.5 225.41,-421.5 225.41,-421.5 225.41,-205.5 225.41,-205.5 225.41,-199.5 231.41,-193.5 237.41,-193.5"/>
<text text-anchor="middle" x="327.688" y="-418.3" font-family="Times,serif" font-size="14.00">User</text>
<polyline fill="none" stroke="black" points="225.41,-411.5 429.966,-411.5 "/>
<text text-anchor="start" x="233.41" y="-396.3" font-family="Times,serif" font-size="14.00">id :integer</text>
<text text-anchor="start" x="233.41" y="-382.3" font-family="Times,serif" font-size="14.00">email :string</text>
<text text-anchor="start" x="233.41" y="-368.3" font-family="Times,serif" font-size="14.00">encrypted_password :string</text>
<text text-anchor="start" x="233.41" y="-354.3" font-family="Times,serif" font-size="14.00">reset_password_token :string</text>
<text text-anchor="start" x="233.41" y="-340.3" font-family="Times,serif" font-size="14.00">reset_password_sent_at :datetime</text>
<text text-anchor="start" x="233.41" y="-326.3" font-family="Times,serif" font-size="14.00">remember_created_at :datetime</text>
<text text-anchor="start" x="233.41" y="-312.3" font-family="Times,serif" font-size="14.00">sign_in_count :integer</text>
<text text-anchor="start" x="233.41" y="-298.3" font-family="Times,serif" font-size="14.00">current_sign_in_at :datetime</text>
<text text-anchor="start" x="233.41" y="-284.3" font-family="Times,serif" font-size="14.00">last_sign_in_at :datetime</text>
<text text-anchor="start" x="233.41" y="-270.3" font-family="Times,serif" font-size="14.00">current_sign_in_ip :string</text>
<text text-anchor="start" x="233.41" y="-256.3" font-family="Times,serif" font-size="14.00">last_sign_in_ip :string</text>
<text text-anchor="start" x="233.41" y="-242.3" font-family="Times,serif" font-size="14.00">created_at :datetime</text>
<text text-anchor="start" x="233.41" y="-228.3" font-family="Times,serif" font-size="14.00">updated_at :datetime</text>
<text text-anchor="start" x="233.41" y="-214.3" font-family="Times,serif" font-size="14.00">provider :string</text>
<text text-anchor="start" x="233.41" y="-200.3" font-family="Times,serif" font-size="14.00">uid :string</text>
</g>
<!-- User&#45;&gt;Event -->
<g id="edge1" class="edge"><title>User&#45;&gt;Event</title>
<path fill="none" stroke="#37e76f" d="M327.688,-185.126C327.688,-178.928 327.688,-172.772 327.688,-166.729"/>
<ellipse fill="none" stroke="#37e76f" cx="327.688" cy="-189.27" rx="4" ry="4"/>
<polygon fill="#37e76f" stroke="#37e76f" points="327.688,-166.676 332.188,-156.676 327.688,-161.676 327.688,-156.676 327.688,-156.676 327.688,-156.676 327.688,-161.676 323.188,-156.676 327.688,-166.676 327.688,-166.676"/>
</g>
</g>
</svg>
