<?xml version="1.0" encoding="UTF-8" standalone="no"?>
<!DOCTYPE svg PUBLIC "-//W3C//DTD SVG 1.1//EN"
 "http://www.w3.org/Graphics/SVG/1.1/DTD/svg11.dtd">
<!-- Generated by graphviz version 2.38.0 (20140413.2041)
 -->
<!-- Title: models_diagram Pages: 1 -->
<svg width="360pt" height="153pt"
 viewBox="0.00 0.00 359.69 153.00" xmlns="http://www.w3.org/2000/svg" xmlns:xlink="http://www.w3.org/1999/xlink">
<g id="graph0" class="graph" transform="scale(1 1) rotate(0) translate(4 149)">
<title>models_diagram</title>
<polygon fill="white" stroke="none" points="-4,4 -4,-149 355.688,-149 355.688,4 -4,4"/>
<!-- _diagram_info -->
<g id="node1" class="node"><title>_diagram_info</title>
<text text-anchor="start" x="8" y="-130.6" font-family="Times,serif" font-size="13.00">Models diagram</text>
<text text-anchor="start" x="8" y="-117.6" font-family="Times,serif" font-size="13.00">Date: Mar 17 2015 &#45; 15:53</text>
<text text-anchor="start" x="8" y="-104.6" font-family="Times,serif" font-size="13.00">Migration version: 20150313075931</text>
<text text-anchor="start" x="8" y="-91.6" font-family="Times,serif" font-size="13.00">Generated by RailRoady 1.3.0</text>
<text text-anchor="start" x="8" y="-78.6" font-family="Times,serif" font-size="13.00">http://railroady.prestonlee.com</text>
</g>
<!-- Event -->
<g id="node2" class="node"><title>Event</title>
<ellipse fill="none" stroke="black" cx="252.688" cy="-18" rx="30.9706" ry="18"/>
<text text-anchor="middle" x="252.688" y="-13.8" font-family="Times,serif" font-size="14.00">Event</text>
</g>
<!-- Park -->
<g id="node3" class="node"><title>Park</title>
<ellipse fill="none" stroke="black" cx="324.688" cy="-108.5" rx="27" ry="18"/>
<text text-anchor="middle" x="324.688" y="-104.3" font-family="Times,serif" font-size="14.00">Park</text>
</g>
<!-- User -->
<g id="node4" class="node"><title>User</title>
<ellipse fill="none" stroke="black" cx="252.688" cy="-108.5" rx="27" ry="18"/>
<text text-anchor="middle" x="252.688" y="-104.3" font-family="Times,serif" font-size="14.00">User</text>
</g>
<!-- User&#45;&gt;Event -->
<g id="edge1" class="edge"><title>User&#45;&gt;Event</title>
<path fill="none" stroke="#978eaa" d="M252.688,-82.189C252.688,-70.9711 252.688,-57.7517 252.688,-46.3113"/>
<ellipse fill="none" stroke="#978eaa" cx="252.688" cy="-86.4363" rx="4" ry="4"/>
<polygon fill="#978eaa" stroke="#978eaa" points="252.688,-46.0113 257.188,-36.0113 252.688,-41.0113 252.688,-36.0113 252.688,-36.0113 252.688,-36.0113 252.688,-41.0113 248.188,-36.0113 252.688,-46.0113 252.688,-46.0113"/>
</g>
</g>
</svg>
